<svg width="56" height="56" viewBox="0 0 56 56" xmlns="http://www.w3.org/2000/svg">
<g clip-path="url(#clip0_102_91)">
<path d="M22.5 0.973068C22.8416 1.38821 23.051 1.89627 23.1009 2.4316C23.1508 2.96692 23.039 3.50492 22.78 3.97607C20.7565 7.69123 19.6998 11.8556 19.707 16.0861C19.707 30.1596 31.18 41.5556 45.32 41.5556C47.1645 41.5556 48.96 41.3631 50.6855 40.9956C51.2144 40.881 51.7654 40.9248 52.2696 41.1215C52.7738 41.3182 53.2089 41.6591 53.5205 42.1016C53.8495 42.5616 54.0172 43.1175 53.9976 43.6828C53.9779 44.248 53.7721 44.7909 53.412 45.2271C50.6669 48.5991 47.2039 51.316 43.2754 53.1797C39.347 55.0434 35.0521 56.007 30.704 56.0001C14.569 56.0001 1.5 43.0011 1.5 26.9851C1.5 14.9311 8.899 4.59207 19.434 0.210068C19.9588 -0.0117203 20.5414 -0.0572414 21.0942 0.080343C21.6471 0.217927 22.1404 0.531188 22.5 0.973068Z"/>
<path d="M21 0.972946C21.3416 1.38809 21.551 1.89615 21.6009 2.43147C21.6508 2.9668 21.539 3.5048 21.28 3.97595C19.2565 7.69111 18.1998 11.8555 18.207 16.0859C18.207 30.1594 29.68 41.5554 43.82 41.5554C45.6645 41.5554 47.46 41.3629 49.1855 40.9954C49.7144 40.8809 50.2654 40.9247 50.7696 41.1214C51.2738 41.3181 51.7089 41.659 52.0205 42.1014C52.3495 42.5615 52.5172 43.1174 52.4976 43.6826C52.4779 44.2479 52.2721 44.7908 51.912 45.2269C49.1669 48.599 45.7039 51.3159 41.7754 53.1796C37.847 55.0433 33.5521 56.0068 29.204 55.9999C13.069 55.9999 0 43.0009 0 26.9849C0 14.9309 7.399 4.59195 17.934 0.209946C18.4588 -0.0118424 19.0414 -0.0573635 19.5942 0.0802209C20.1471 0.217805 20.6404 0.531066 21 0.972946Z"/>
</g>
<defs>
<clipPath id="clip0_102_91">
<rect width="56" height="56" fill="white"/>
</clipPath>
</defs>
</svg>
