<svg width="56" height="56" viewBox="0 0 56 56" xmlns="http://www.w3.org/2000/svg">
<path fill-rule="evenodd" clip-rule="evenodd" d="M28.0001 5.59998C28.7427 5.59998 29.4549 5.89497 29.98 6.42008C30.5051 6.94518 30.8001 7.65737 30.8001 8.39998V11.2C30.8001 11.9426 30.5051 12.6548 29.98 13.1799C29.4549 13.705 28.7427 14 28.0001 14C27.2575 14 26.5453 13.705 26.0202 13.1799C25.4951 12.6548 25.2001 11.9426 25.2001 11.2V8.39998C25.2001 7.65737 25.4951 6.94518 26.0202 6.42008C26.5453 5.89497 27.2575 5.59998 28.0001 5.59998ZM37.9009 41.86L39.8805 43.8396C40.4086 44.3496 41.1159 44.6318 41.85 44.6255C42.5842 44.6191 43.2864 44.3246 43.8056 43.8055C44.3247 43.2863 44.6192 42.5841 44.6256 41.8499C44.632 41.1158 44.3497 40.4085 43.8397 39.8804L41.8601 37.9008C41.332 37.3907 40.6247 37.1085 39.8906 37.1149C39.1564 37.1213 38.4542 37.4157 37.935 37.9349C37.4159 38.454 37.1214 39.1563 37.115 39.8905C37.1086 40.6246 37.3909 41.3319 37.9009 41.86ZM43.8369 12.1604C44.3618 12.6855 44.6567 13.3975 44.6567 14.14C44.6567 14.8824 44.3618 15.5945 43.8369 16.1196L41.8601 18.0992C41.6018 18.3666 41.2928 18.5799 40.9512 18.7267C40.6096 18.8734 40.2422 18.9506 39.8704 18.9539C39.4986 18.9571 39.1299 18.8863 38.7858 18.7455C38.4417 18.6047 38.1291 18.3968 37.8662 18.1339C37.6033 17.871 37.3954 17.5584 37.2546 17.2142C37.1138 16.8701 37.043 16.5014 37.0462 16.1297C37.0494 15.7579 37.1267 15.3905 37.2734 15.0488C37.4202 14.7072 37.6335 14.3983 37.9009 14.14L39.8805 12.1604C40.4056 11.6355 41.1176 11.3406 41.8601 11.3406C42.6026 11.3406 43.3146 11.6355 43.8397 12.1604H43.8369ZM47.6001 30.8C48.3427 30.8 49.0549 30.505 49.58 29.9799C50.1051 29.4548 50.4001 28.7426 50.4001 28C50.4001 27.2574 50.1051 26.5452 49.58 26.0201C49.0549 25.495 48.3427 25.2 47.6001 25.2H44.8001C44.0575 25.2 43.3453 25.495 42.8202 26.0201C42.2951 26.5452 42.0001 27.2574 42.0001 28C42.0001 28.7426 42.2951 29.4548 42.8202 29.9799C43.3453 30.505 44.0575 30.8 44.8001 30.8H47.6001ZM28.0001 42C28.7427 42 29.4549 42.295 29.98 42.8201C30.5051 43.3452 30.8001 44.0574 30.8001 44.8V47.6C30.8001 48.3426 30.5051 49.0548 29.98 49.5799C29.4549 50.105 28.7427 50.4 28.0001 50.4C27.2575 50.4 26.5453 50.105 26.0202 49.5799C25.4951 49.0548 25.2001 48.3426 25.2001 47.6V44.8C25.2001 44.0574 25.4951 43.3452 26.0202 42.8201C26.5453 42.295 27.2575 42 28.0001 42ZM14.1401 18.0992C14.4001 18.3593 14.7087 18.5657 15.0485 18.7066C15.3882 18.8474 15.7523 18.92 16.1201 18.9201C16.4879 18.9203 16.8521 18.848 17.1919 18.7073C17.5317 18.5667 17.8405 18.3605 18.1007 18.1006C18.3608 17.8406 18.5672 17.532 18.7081 17.1922C18.849 16.8525 18.9215 16.4883 18.9217 16.1206C18.9218 15.7528 18.8495 15.3886 18.7089 15.0488C18.5682 14.7089 18.3621 14.4001 18.1021 14.14L16.1197 12.1604C15.5916 11.6503 14.8843 11.3681 14.1502 11.3745C13.416 11.3809 12.7137 11.6753 12.1946 12.1945C11.6755 12.7136 11.381 13.4159 11.3746 14.1501C11.3682 14.8842 11.6505 15.5915 12.1605 16.1196L14.1401 18.0992ZM18.0993 41.86L16.1197 43.8396C15.5916 44.3496 14.8843 44.6318 14.1502 44.6255C13.416 44.6191 12.7137 44.3246 12.1946 43.8055C11.6755 43.2863 11.381 42.5841 11.3746 41.8499C11.3682 41.1158 11.6505 40.4085 12.1605 39.8804L14.1401 37.9008C14.6682 37.3907 15.3755 37.1085 16.1096 37.1149C16.8438 37.1213 17.546 37.4157 18.0652 37.9349C18.5843 38.454 18.8788 39.1563 18.8852 39.8905C18.8916 40.6246 18.6093 41.3319 18.0993 41.86ZM11.2001 30.8C11.9427 30.8 12.6549 30.505 13.18 29.9799C13.7051 29.4548 14.0001 28.7426 14.0001 28C14.0001 27.2574 13.7051 26.5452 13.18 26.0201C12.6549 25.495 11.9427 25.2 11.2001 25.2H8.4001C7.65749 25.2 6.9453 25.495 6.4202 26.0201C5.8951 26.5452 5.6001 27.2574 5.6001 28C5.6001 28.7426 5.8951 29.4548 6.4202 29.9799C6.9453 30.505 7.65749 30.8 8.4001 30.8H11.2001Z" />
<path d="M37.7598 24.2402C36.7096 21.7048 34.6952 19.6904 32.1598 18.6402C29.6244 17.59 26.7756 17.59 24.2402 18.6402C21.7048 19.6904 19.6904 21.7048 18.6402 24.2402C17.59 26.7756 17.59 29.6244 18.6402 32.1598C19.6904 34.6952 21.7048 36.7096 24.2402 37.7598C26.7756 38.81 29.6244 38.81 32.1598 37.7598C34.6952 36.7096 36.7096 34.6952 37.7598 32.1598C38.81 29.6244 38.81 26.7756 37.7598 24.2402Z" />
</svg>
